<svg width="1200" height="560" viewBox="0 0 1200 560" fill="none" xmlns="http://www.w3.org/2000/svg" role="img" aria-labelledby="title desc">
  <title id="title">Spotify Video Sync hero</title>
  <desc id="desc">A polished Chrome extension preview showing Spotify pausing while video is active.</desc>
  <rect width="1200" height="560" rx="34" fill="#101312"/>
  <path d="M0 0h1200v560H0z" fill="url(#bg)"/>
  <circle cx="1044" cy="98" r="198" fill="#1ED760" opacity=".13"/>
  <circle cx="152" cy="442" r="180" fill="#2F9EBF" opacity=".12"/>
  <circle cx="730" cy="462" r="118" fill="#F6C85F" opacity=".1"/>

  <g transform="translate(84 82)">
    <rect x="0" y="0" width="444" height="396" rx="28" fill="#F4F6F2"/>
    <rect x="0" y="0" width="444" height="148" rx="28" fill="#111714"/>
    <rect x="28" y="28" width="54" height="54" rx="14" fill="#1ED760"/>
    <path d="M40 51c24-7 43-3 55 5" stroke="#07140C" stroke-width="5" stroke-linecap="round"/>
    <path d="M43 64c18-5 34-2 45 4" stroke="#07140C" stroke-width="4" stroke-linecap="round"/>
    <path d="M46 76c13-3 24-1 32 3" stroke="#07140C" stroke-width="3" stroke-linecap="round"/>
    <text x="100" y="49" fill="#F7FFF9" font-family="Inter,Segoe UI,Arial" font-size="24" font-weight="800">Spotify Video Sync</text>
    <text x="100" y="76" fill="#A9B6AF" font-family="Inter,Segoe UI,Arial" font-size="16" font-weight="700">Çalıyor</text>

    <rect x="28" y="104" width="388" height="92" rx="20" fill="#FFFFFF" opacity=".08"/>
    <circle cx="82" cy="150" r="31" fill="url(#disc)"/>
    <circle cx="82" cy="150" r="13" fill="#111714"/>
    <circle cx="82" cy="150" r="5" fill="#1ED760"/>
    <rect x="130" y="126" width="74" height="22" rx="11" fill="#1ED760" opacity=".18"/>
    <text x="143" y="142" fill="#DBFFE8" font-family="Inter,Segoe UI,Arial" font-size="12" font-weight="900">Video yok</text>
    <text x="130" y="168" fill="#FFFFFF" font-family="Inter,Segoe UI,Arial" font-size="20" font-weight="900">Parça bilgisi</text>
    <text x="130" y="189" fill="#A9B6AF" font-family="Inter,Segoe UI,Arial" font-size="14" font-weight="700">Spotify Web</text>

    <rect x="28" y="220" width="52" height="48" rx="12" fill="#FFFFFF"/>
    <text x="43" y="251" fill="#111714" font-family="Inter,Segoe UI,Arial" font-size="22" font-weight="900">‹‹</text>
    <rect x="92" y="220" width="260" height="48" rx="12" fill="#1ED760"/>
    <text x="178" y="250" fill="#07140C" font-family="Inter,Segoe UI,Arial" font-size="16" font-weight="900">Duraklat</text>
    <rect x="364" y="220" width="52" height="48" rx="12" fill="#FFFFFF"/>
    <text x="378" y="251" fill="#111714" font-family="Inter,Segoe UI,Arial" font-size="22" font-weight="900">››</text>

    <rect x="28" y="292" width="388" height="76" rx="16" fill="#FFFFFF"/>
    <text x="50" y="324" fill="#64716A" font-family="Inter,Segoe UI,Arial" font-size="13" font-weight="900">SES SINIRI</text>
    <rect x="50" y="342" width="270" height="8" rx="4" fill="#DCE4DD"/>
    <rect x="50" y="342" width="150" height="8" rx="4" fill="#1ED760"/>
    <text x="344" y="351" fill="#111714" font-family="Inter,Segoe UI,Arial" font-size="18" font-weight="900">50%</text>
  </g>

  <g transform="translate(602 112)">
    <text x="0" y="0" fill="#F7FFF9" font-family="Inter,Segoe UI,Arial" font-size="52" font-weight="950">Video açılır,</text>
    <text x="0" y="62" fill="#F7FFF9" font-family="Inter,Segoe UI,Arial" font-size="52" font-weight="950">Spotify sakinleşir.</text>
    <text x="0" y="112" fill="#B9C6BF" font-family="Inter,Segoe UI,Arial" font-size="20" font-weight="650">Chrome için Manifest V3 tabanlı, hafif ve ayarlanabilir Spotify Web senkronizasyon eklentisi.</text>

    <g transform="translate(0 172)">
      <rect x="0" y="0" width="170" height="48" rx="24" fill="#1ED760"/>
      <text x="27" y="31" fill="#07140C" font-family="Inter,Segoe UI,Arial" font-size="16" font-weight="900">Load unpacked</text>
      <rect x="188" y="0" width="134" height="48" rx="24" fill="#FFFFFF" opacity=".1"/>
      <text x="219" y="31" fill="#F7FFF9" font-family="Inter,Segoe UI,Arial" font-size="16" font-weight="850">Vanilla JS</text>
    </g>

    <g transform="translate(0 272)">
      <rect x="0" y="0" width="464" height="90" rx="18" fill="#FFFFFF" opacity=".08"/>
      <circle cx="48" cy="45" r="22" fill="#2F9EBF"/>
      <path d="M41 34l19 11-19 11V34z" fill="#F7FFF9"/>
      <path d="M94 45h120" stroke="#51615A" stroke-width="5" stroke-linecap="round"/>
      <path d="M250 25v40" stroke="#1ED760" stroke-width="8" stroke-linecap="round"/>
      <circle cx="342" cy="45" r="24" fill="#1ED760"/>
      <path d="M331 38c14-4 27-2 35 4" stroke="#07140C" stroke-width="4" stroke-linecap="round"/>
      <path d="M334 49c10-3 19-1 25 3" stroke="#07140C" stroke-width="3" stroke-linecap="round"/>
      <text x="386" y="51" fill="#F7FFF9" font-family="Inter,Segoe UI,Arial" font-size="18" font-weight="850">Sync</text>
    </g>
  </g>

  <defs>
    <linearGradient id="bg" x1="0" y1="0" x2="1200" y2="560" gradientUnits="userSpaceOnUse">
      <stop stop-color="#101312"/>
      <stop offset=".52" stop-color="#142119"/>
      <stop offset="1" stop-color="#11191A"/>
    </linearGradient>
    <linearGradient id="disc" x1="51" y1="119" x2="113" y2="181" gradientUnits="userSpaceOnUse">
      <stop stop-color="#1ED760"/>
      <stop offset=".55" stop-color="#2F9EBF"/>
      <stop offset="1" stop-color="#F6C85F"/>
    </linearGradient>
  </defs>
</svg>
